<?xml version="1.0" encoding="utf-8" ?>
<svg xmlns="http://www.w3.org/2000/svg" xmlns:xlink="http://www.w3.org/1999/xlink" width="1920" height="300">
	<path fill="#77B1D2" d="M0 137.033L-0 -0L85.3369 0L187.506 0L214.829 0L300.279 0L329.266 0L403.839 0L453.836 0L544.951 0L581.289 0L641.603 0L696.56 0L773.994 0L819.074 0L862.31 0L925.297 0L1012.01 0L1039.65 0L1122.6 0L1161.33 0L1247.2 0L1278.61 0L1362.47 0L1398.65 0L1475.76 0L1511.84 0L1608.14 0L1626.67 0L1711.71 0L1750.94 0L1799.66 0L1870.44 0L1920 0L1920 66.4966L1920 150.86L1920 300L1826.76 300L1773.07 300L1683.7 300L1653.8 300L1563.13 300L1532.8 300L1440.02 300L1422.18 300L1324.74 300L1305.23 300L1211.31 300L1184.55 300L1091.77 300L1062.83 300L974.3 300L945.543 300L852.954 300L827.881 300L738.267 300L720.439 300L630.871 300L600.42 300L509.576 300L482.131 300L393.766 300L364.641 300L267.173 300L236.127 300L142.173 300L118.895 300L28.0898 300L0.512695 299.956L0 297.188L0 137.033Z"/>
	<path fill="white" d="M187.506 0L214.829 0L28.0898 300L0.512695 299.956L0 297.188C3.341 294.681 6.38153 287.859 8.64114 284.219L29.7725 250.429L150.247 57.154L187.506 0Z"/>
	<path fill="#FFBF01" d="M0 137.033L-0 -0L85.3369 0L187.506 0L150.247 57.154L29.7725 250.429L8.64114 284.219C6.38153 287.859 3.341 294.681 0 297.188L0 137.033Z"/>
	<path fill="white" d="M0 137.033L-0 -0L85.3369 0L0 137.033Z"/>
	<path fill="#F6800D" d="M300.279 0L329.266 0L403.839 0C407.62 4.55213 410.698 8.51347 410.08 14.8376C409.586 19.9058 406.771 24.5543 404.536 29.023L391.579 53.0687L352.895 112.496L264.969 253.993C255.588 268.898 244.014 284.305 236.127 300L142.173 300L118.895 300C122.979 291.885 128.712 283.941 133.542 276.215L161.913 230.865L249.063 91.2437C262.615 69.6805 277.607 49.3162 289.56 26.7524C294.3 17.8054 298.925 10.2135 300.279 0Z"/>
	<path fill="white" d="M300.279 0L329.266 0L142.173 300L118.895 300C122.979 291.885 128.712 283.941 133.542 276.215L161.913 230.865L249.063 91.2437C262.615 69.6805 277.607 49.3162 289.56 26.7524C294.3 17.8054 298.925 10.2135 300.279 0Z"/>
	<path fill="#C93736" d="M403.839 0L453.836 0L544.951 0C544.596 12.549 536.865 23.9776 530.879 34.7698C516.873 60.0212 499.588 83.4654 484.25 107.929L364.641 300L267.173 300L236.127 300C244.014 284.305 255.588 268.898 264.969 253.993L352.895 112.496L391.579 53.0687L404.536 29.023C406.771 24.5543 409.586 19.9058 410.08 14.8376C410.698 8.51347 407.62 4.55213 403.839 0Z"/>
	<path fill="white" d="M403.839 0L453.836 0L267.173 300L236.127 300C244.014 284.305 255.588 268.898 264.969 253.993L352.895 112.496L391.579 53.0687L404.536 29.023C406.771 24.5543 409.586 19.9058 410.08 14.8376C410.698 8.51347 407.62 4.55213 403.839 0Z"/>
	<path fill="#A4D543" d="M544.951 0L581.289 0L641.603 0L696.56 0L773.994 0C776.527 5.04808 777.968 9.34838 776.126 14.9236C774.002 21.3555 769.984 28.0036 766.792 34.0388C753.977 58.2622 737.549 80.2536 723.057 103.462L600.42 300L509.576 300L482.131 300L393.766 300L364.641 300L484.25 107.929C499.588 83.4654 516.873 60.0212 530.879 34.7698C536.865 23.9776 544.596 12.549 544.951 0Z"/>
	<path fill="white" d="M641.603 0L696.56 0L509.576 300L482.131 300L597.444 115.262C610.795 93.7831 625.903 73.2634 638.474 51.3358L649.374 30.7871C651.575 26.3882 654.505 21.4745 653.959 16.3495C653.131 8.57095 647.245 4.46047 641.603 0Z"/>
	<path fill="white" d="M544.951 0L581.289 0L393.766 300L364.641 300L484.25 107.929C499.588 83.4654 516.873 60.0212 530.879 34.7698C536.865 23.9776 544.596 12.549 544.951 0Z"/>
	<path fill="#FFBF01" d="M696.56 0L773.994 0C776.527 5.04808 777.968 9.34838 776.126 14.9236C774.002 21.3555 769.984 28.0036 766.792 34.0388C753.977 58.2622 737.549 80.2536 723.057 103.462L600.42 300L509.576 300L696.56 0Z"/>
	<path fill="#77B1D2" d="M773.994 0L819.074 0L862.31 0L925.297 0L1012.01 0L1039.65 0L1122.6 0C1123.31 2.89794 1124.16 6.1257 1123.76 9.12169C1123.2 13.2943 1120.81 17.1885 1118.99 20.9163L1104.98 46.7661L945.543 300L852.954 300L827.881 300L738.267 300L720.439 300L630.871 300L600.42 300L723.057 103.462C737.549 80.2536 753.977 58.2622 766.792 34.0388C769.984 28.0036 774.002 21.3555 776.126 14.9236C777.968 9.34838 776.527 5.04808 773.994 0Z"/>
	<path fill="white" d="M862.31 0L925.297 0L738.267 300L720.439 300L859.076 79.7617C866.39 68.3515 889.613 34.2659 886.688 21.7333C884.488 12.306 869.796 4.77941 862.31 0Z"/>
	<path fill="white" d="M773.994 0L819.074 0L630.871 300L600.42 300L723.057 103.462C737.549 80.2536 753.977 58.2622 766.792 34.0388C769.984 28.0036 774.002 21.3555 776.126 14.9236C777.968 9.34838 776.527 5.04808 773.994 0Z"/>
	<path fill="#F6800D" d="M925.297 0L1012.01 0C1007.44 13.6326 999.383 27.1866 991.908 39.4067L952.552 100.315L827.881 300L738.267 300L925.297 0Z"/>
	<path fill="#C93736" d="M1012.01 0L1039.65 0L1122.6 0C1123.31 2.89794 1124.16 6.1257 1123.76 9.12169C1123.2 13.2943 1120.81 17.1885 1118.99 20.9163L1104.98 46.7661L945.543 300L852.954 300L827.881 300L952.552 100.315L991.908 39.4067C999.383 27.1866 1007.44 13.6326 1012.01 0Z"/>
	<path fill="white" d="M1012.01 0L1039.65 0L852.954 300L827.881 300L952.552 100.315L991.908 39.4067C999.383 27.1866 1007.44 13.6326 1012.01 0Z"/>
	<path fill="#C93736" d="M1122.6 0L1161.33 0L1247.2 0L1278.61 0L1362.47 0L1398.65 0L1475.76 0L1511.84 0L1608.14 0L1626.67 0L1711.71 0L1750.94 0L1799.66 0L1870.44 0L1920 0L1920 66.4966L1920 150.86L1920 300L1826.76 300L1773.07 300L1683.7 300L1653.8 300L1563.13 300L1532.8 300L1440.02 300L1422.18 300L1324.74 300L1305.23 300L1211.31 300L1184.55 300L1091.77 300L1062.83 300L974.3 300L945.543 300L1104.98 46.7661L1118.99 20.9163C1120.81 17.1885 1123.2 13.2943 1123.76 9.12169C1124.16 6.1257 1123.31 2.89794 1122.6 0Z"/>
	<path fill="white" d="M1475.76 0L1511.84 0L1324.74 300L1305.23 300L1421.81 113.011L1460.97 52.8032L1474.64 27.6521C1476.59 23.8505 1479.43 19.3352 1480.12 15.1029C1481.15 8.75758 1479.37 5.04756 1475.76 0Z"/>
	<path fill="#A4D543" d="M1608.14 0L1626.67 0L1711.71 0C1711.94 4.25529 1712.27 8.4722 1710.57 12.4733C1696.62 45.4423 1673.22 75.0823 1654.15 105.175L1585.8 215.377L1532.8 300L1440.02 300L1422.18 300L1546.56 100.455C1567.35 67.0612 1590.81 35.4108 1608.14 0Z"/>
	<path fill="white" d="M1608.14 0L1626.67 0L1440.02 300L1422.18 300L1546.56 100.455C1567.35 67.0612 1590.81 35.4108 1608.14 0Z"/>
	<path fill="#F6800D" d="M1362.47 0L1398.65 0L1475.76 0C1479.37 5.04756 1481.15 8.75758 1480.12 15.1029C1479.43 19.3352 1476.59 23.8505 1474.64 27.6521L1460.97 52.8032L1421.81 113.011L1305.23 300L1211.31 300L1184.55 300L1308.28 101.575C1326.04 72.7909 1347.59 45.8815 1361.2 14.6564C1363.48 9.42108 1363.41 5.54997 1362.47 0Z"/>
	<path fill="white" d="M1362.47 0L1398.65 0L1211.31 300L1184.55 300L1308.28 101.575C1326.04 72.7909 1347.59 45.8815 1361.2 14.6564C1363.48 9.42108 1363.41 5.54997 1362.47 0Z"/>
	<path fill="#FFBF01" d="M1122.6 0L1161.33 0L1247.2 0L1278.61 0L1362.47 0C1363.41 5.54997 1363.48 9.42108 1361.2 14.6564C1347.59 45.8815 1326.04 72.7909 1308.28 101.575L1184.55 300L1091.77 300L1062.83 300L974.3 300L945.543 300L1104.98 46.7661L1118.99 20.9163C1120.81 17.1885 1123.2 13.2943 1123.76 9.12169C1124.16 6.1257 1123.31 2.89794 1122.6 0Z"/>
	<path fill="white" d="M1247.2 0L1278.61 0L1091.77 300L1062.83 300L1109.37 225.388L1194.83 88.3967C1212.57 60.1466 1235.81 31.6237 1247.2 0Z"/>
	<path fill="#A4D543" d="M1122.6 0L1161.33 0L1247.2 0C1235.81 31.6237 1212.57 60.1466 1194.83 88.3967L1109.37 225.388L1062.83 300L974.3 300L945.543 300L1104.98 46.7661L1118.99 20.9163C1120.81 17.1885 1123.2 13.2943 1123.76 9.12169C1124.16 6.1257 1123.31 2.89794 1122.6 0Z"/>
	<path fill="white" d="M1122.6 0L1161.33 0L974.3 300L945.543 300L1104.98 46.7661L1118.99 20.9163C1120.81 17.1885 1123.2 13.2943 1123.76 9.12169C1124.16 6.1257 1123.31 2.89794 1122.6 0Z"/>
	<path fill="#FFBF01" d="M1711.71 0L1750.94 0L1799.66 0L1870.44 0L1920 0L1920 66.4966L1920 150.86L1920 300L1826.76 300L1773.07 300L1683.7 300L1653.8 300L1563.13 300L1532.8 300L1585.8 215.377L1654.15 105.175C1673.22 75.0823 1696.62 45.4423 1710.57 12.4733C1712.27 8.4722 1711.94 4.25529 1711.71 0Z"/>
	<path fill="white" d="M1711.71 0L1750.94 0L1563.13 300L1532.8 300L1585.8 215.377L1654.15 105.175C1673.22 75.0823 1696.62 45.4423 1710.57 12.4733C1712.27 8.4722 1711.94 4.25529 1711.71 0Z"/>
	<path fill="white" d="M1799.66 0L1870.44 0L1834.83 59.651L1760.78 178.341L1703.94 267.718C1697.45 278.13 1688.93 288.965 1683.7 300L1653.8 300L1790.54 82.6097C1798.11 71.1659 1823.78 33.062 1821.23 20.942C1819.18 11.2048 1807.34 5.00984 1799.66 0Z"/>
	<path fill="#77B1D2" d="M1870.44 0L1920 0L1920 66.4966L1920 150.86L1920 300L1826.76 300L1773.07 300L1683.7 300C1688.93 288.965 1697.45 278.13 1703.94 267.718L1760.78 178.341L1834.83 59.651L1870.44 0Z"/>
	<path fill="white" d="M1920 66.4966L1920 150.86L1920 300L1826.76 300L1773.07 300L1920 66.4966Z"/>
	<path fill="#F6800D" d="M1920 150.86L1920 300L1826.76 300L1920 150.86Z"/>
</svg>
